<?xml version="1.0" encoding="UTF-8" standalone="no"?>
<!DOCTYPE svg PUBLIC "-//W3C//DTD SVG 1.1//EN"
 "http://www.w3.org/Graphics/SVG/1.1/DTD/svg11.dtd">
<!-- Generated by graphviz version 15.0.0 (20260523.1842)
 -->
<!-- Title: KelpClawArchitecture Pages: 1 -->
<svg width="3406pt" height="1628pt"
 viewBox="0.00 0.00 3406.00 1628.00" xmlns="http://www.w3.org/2000/svg" xmlns:xlink="http://www.w3.org/1999/xlink">
<g id="graph0" class="graph" transform="scale(1 1) rotate(0) translate(25.2 1603.2)">
<title>KelpClawArchitecture</title>
<polygon fill="#ffffff" stroke="none" points="-25.2,25.2 -25.2,-1603.2 3380.56,-1603.2 3380.56,25.2 -25.2,25.2"/>
<text xml:space="preserve" text-anchor="middle" x="1677.68" y="-1547.4" font-family="Helvetica,sans-Serif" font-size="28.00" fill="#0f172a">KelpClaw Architecture</text>
<text xml:space="preserve" text-anchor="middle" x="1677.68" y="-1518.9" font-family="Helvetica,sans-Serif" font-size="28.00" fill="#0f172a">workflow creation, governance, execution, and evidence</text>
<g id="clust1" class="cluster">
<title>cluster_inputs</title>
<path fill="#f8fafc" stroke="#cbd5e1" d="M12,-1157C12,-1157 261.25,-1157 261.25,-1157 267.25,-1157 273.25,-1163 273.25,-1169 273.25,-1169 273.25,-1493 273.25,-1493 273.25,-1499 267.25,-1505 261.25,-1505 261.25,-1505 12,-1505 12,-1505 6,-1505 0,-1499 0,-1493 0,-1493 0,-1169 0,-1169 0,-1163 6,-1157 12,-1157"/>
<text xml:space="preserve" text-anchor="middle" x="136.62" y="-1474.4" font-family="Helvetica,sans-Serif" font-size="28.00" fill="#0f172a">Inputs and operators</text>
</g>
<g id="clust2" class="cluster">
<title>cluster_surfaces</title>
<path fill="#eff6ff" stroke="#93c5fd" d="M330.25,-1075C330.25,-1075 717.06,-1075 717.06,-1075 723.06,-1075 729.06,-1081 729.06,-1087 729.06,-1087 729.06,-1493 729.06,-1493 729.06,-1499 723.06,-1505 717.06,-1505 717.06,-1505 330.25,-1505 330.25,-1505 324.25,-1505 318.25,-1499 318.25,-1493 318.25,-1493 318.25,-1087 318.25,-1087 318.25,-1081 324.25,-1075 330.25,-1075"/>
<text xml:space="preserve" text-anchor="middle" x="523.66" y="-1474.4" font-family="Helvetica,sans-Serif" font-size="28.00" fill="#0f172a">Authoring and review surfaces</text>
</g>
<g id="clust3" class="cluster">
<title>cluster_control</title>
<path fill="#f5f3ff" stroke="#c4b5fd" d="M786.06,-235C786.06,-235 1364.78,-235 1364.78,-235 1370.78,-235 1376.78,-241 1376.78,-247 1376.78,-247 1376.78,-751 1376.78,-751 1376.78,-757 1370.78,-763 1364.78,-763 1364.78,-763 786.06,-763 786.06,-763 780.06,-763 774.06,-757 774.06,-751 774.06,-751 774.06,-247 774.06,-247 774.06,-241 780.06,-235 786.06,-235"/>
<text xml:space="preserve" text-anchor="middle" x="1075.42" y="-732.4" font-family="Helvetica,sans-Serif" font-size="28.00" fill="#0f172a">apps/api control plane</text>
</g>
<g id="clust4" class="cluster">
<title>cluster_core</title>
<path fill="#f0fdf4" stroke="#86efac" d="M1220.87,-771C1220.87,-771 1769.92,-771 1769.92,-771 1775.92,-771 1781.92,-777 1781.92,-783 1781.92,-783 1781.92,-1266 1781.92,-1266 1781.92,-1272 1775.92,-1278 1769.92,-1278 1769.92,-1278 1220.87,-1278 1220.87,-1278 1214.87,-1278 1208.87,-1272 1208.87,-1266 1208.87,-1266 1208.87,-783 1208.87,-783 1208.87,-777 1214.87,-771 1220.87,-771"/>
<text xml:space="preserve" text-anchor="middle" x="1495.39" y="-1247.4" font-family="Helvetica,sans-Serif" font-size="28.00" fill="#0f172a">Shared KelpClaw packages</text>
</g>
<g id="clust5" class="cluster">
<title>cluster_lifecycle</title>
<path fill="#fff7ed" stroke="#fdba74" d="M1639.89,-541C1639.89,-541 2538.49,-541 2538.49,-541 2544.49,-541 2550.49,-547 2550.49,-553 2550.49,-553 2550.49,-751 2550.49,-751 2550.49,-757 2544.49,-763 2538.49,-763 2538.49,-763 1639.89,-763 1639.89,-763 1633.89,-763 1627.89,-757 1627.89,-751 1627.89,-751 1627.89,-553 1627.89,-553 1627.89,-547 1633.89,-541 1639.89,-541"/>
<text xml:space="preserve" text-anchor="middle" x="2089.19" y="-732.4" font-family="Helvetica,sans-Serif" font-size="28.00" fill="#0f172a">Governed workflow lifecycle</text>
</g>
<g id="clust6" class="cluster">
<title>cluster_runtime</title>
<path fill="#fdf2f8" stroke="#f9a8d4" d="M1443.15,-8C1443.15,-8 1960.9,-8 1960.9,-8 1966.9,-8 1972.9,-14 1972.9,-20 1972.9,-20 1972.9,-463 1972.9,-463 1972.9,-469 1966.9,-475 1960.9,-475 1960.9,-475 1443.15,-475 1443.15,-475 1437.15,-475 1431.15,-469 1431.15,-463 1431.15,-463 1431.15,-20 1431.15,-20 1431.15,-14 1437.15,-8 1443.15,-8"/>
<text xml:space="preserve" text-anchor="middle" x="1702.03" y="-444.4" font-family="Helvetica,sans-Serif" font-size="28.00" fill="#0f172a">Execution backends and external systems</text>
</g>
<g id="clust7" class="cluster">
<title>cluster_state</title>
<path fill="#ecfdf5" stroke="#a7f3d0" d="M2607.49,-543C2607.49,-543 3335.36,-543 3335.36,-543 3341.36,-543 3347.36,-549 3347.36,-555 3347.36,-555 3347.36,-753 3347.36,-753 3347.36,-759 3341.36,-765 3335.36,-765 3335.36,-765 2607.49,-765 2607.49,-765 2601.49,-765 2595.49,-759 2595.49,-753 2595.49,-753 2595.49,-555 2595.49,-555 2595.49,-549 2601.49,-543 2607.49,-543"/>
<text xml:space="preserve" text-anchor="middle" x="2971.43" y="-734.4" font-family="Helvetica,sans-Serif" font-size="28.00" fill="#0f172a">Local state and artifacts</text>
</g>
<!-- operator&#45;&gt;graph_ui -->
<g id="edge1" class="edge">
<title>operator&#45;&gt;graph_ui</title>
<path fill="none" stroke="#475569" stroke-width="1.2" d="M193.36,-1246.73C193.36,-1200.73 193.36,-1108 193.36,-1108 193.36,-1108 316.86,-1108 316.86,-1108"/>
<polygon fill="#475569" stroke="#475569" stroke-width="1.2" points="316.86,-1110.45 323.86,-1108 316.86,-1105.55 316.86,-1110.45"/>
</g>
<!-- operator&#45;&gt;skill_ui -->
<g id="edge2" class="edge">
<title>operator&#45;&gt;skill_ui</title>
<path fill="none" stroke="#475569" stroke-width="1.2" d="M196.36,-1246.95C196.36,-1222.84 196.36,-1190 196.36,-1190 196.36,-1190 340.62,-1190 340.62,-1190"/>
<polygon fill="#475569" stroke="#475569" stroke-width="1.2" points="340.62,-1192.45 347.62,-1190 340.62,-1187.55 340.62,-1192.45"/>
</g>
<!-- operator&#45;&gt;cli -->
<g id="edge3" class="edge">
<title>operator&#45;&gt;cli</title>
<path fill="none" stroke="#475569" stroke-width="1.2" d="M200.37,-1272C222.75,-1272 242.36,-1272 242.36,-1272 242.36,-1272 242.36,-1401.08 242.36,-1401.08 242.36,-1401.08 549.79,-1401.08 549.79,-1401.08"/>
<polygon fill="#475569" stroke="#475569" stroke-width="1.2" points="549.79,-1403.53 556.79,-1401.08 549.79,-1398.63 549.79,-1403.53"/>
</g>
<!-- prompt&#45;&gt;graph_ui -->
<g id="edge4" class="edge">
<title>prompt&#45;&gt;graph_ui</title>
<path fill="none" stroke="#475569" stroke-width="1.2" d="M190.56,-1177.56C249.24,-1177.56 334.36,-1177.56 334.36,-1177.56 334.36,-1177.56 334.36,-1141.93 334.36,-1141.93"/>
<polygon fill="#475569" stroke="#475569" stroke-width="1.2" points="336.81,-1141.93 334.36,-1134.93 331.91,-1141.93 336.81,-1141.93"/>
</g>
<!-- skill_md&#45;&gt;skill_ui -->
<g id="edge5" class="edge">
<title>skill_md&#45;&gt;skill_ui</title>
<path fill="none" stroke="#475569" stroke-width="1.2" d="M195.56,-1354C236.8,-1354 284.36,-1354 284.36,-1354 284.36,-1354 284.36,-1202.44 284.36,-1202.44 284.36,-1202.44 340.56,-1202.44 340.56,-1202.44"/>
<polygon fill="#475569" stroke="#475569" stroke-width="1.2" points="340.56,-1204.89 347.56,-1202.44 340.56,-1199.99 340.56,-1204.89"/>
</g>
<!-- skill_md&#45;&gt;cli -->
<g id="edge6" class="edge">
<title>skill_md&#45;&gt;cli</title>
<path fill="none" stroke="#475569" stroke-width="1.2" d="M116.36,-1379.21C116.36,-1391.82 116.36,-1404.43 116.36,-1404.43 116.36,-1404.43 549.69,-1404.43 549.69,-1404.43"/>
<polygon fill="#475569" stroke="#475569" stroke-width="1.2" points="549.69,-1406.88 556.69,-1404.43 549.69,-1401.98 549.69,-1406.88"/>
</g>
<!-- repository&#45;&gt;cli -->
<g id="edge7" class="edge">
<title>repository&#45;&gt;cli</title>
<path fill="none" stroke="#475569" stroke-width="1.2" d="M156.36,-1410.79C156.36,-1408.94 156.36,-1407.77 156.36,-1407.77 156.36,-1407.77 549.73,-1407.77 549.73,-1407.77"/>
<polygon fill="#475569" stroke="#475569" stroke-width="1.2" points="549.73,-1410.22 556.73,-1407.77 549.73,-1405.32 549.73,-1410.22"/>
</g>
<!-- repository&#45;&gt;github_action -->
<g id="edge8" class="edge">
<title>repository&#45;&gt;github_action</title>
<path fill="none" stroke="#475569" stroke-width="1.2" d="M199.1,-1436C199.1,-1436 328.61,-1436 328.61,-1436"/>
<polygon fill="#475569" stroke="#475569" stroke-width="1.2" points="328.61,-1438.45 335.61,-1436 328.61,-1433.55 328.61,-1438.45"/>
</g>
<!-- graph_ui&#45;&gt;api -->
<g id="edge9" class="edge">
<title>graph_ui&#45;&gt;api</title>
<path fill="none" stroke="#475569" stroke-width="1.2" d="M498.43,-1097.5C616.61,-1097.5 814.36,-1097.5 814.36,-1097.5 814.36,-1097.5 814.36,-578.04 814.36,-578.04"/>
<polygon fill="#475569" stroke="#475569" stroke-width="1.2" points="816.81,-578.04 814.36,-571.04 811.91,-578.04 816.81,-578.04"/>
</g>
<!-- skill_ui&#45;&gt;api -->
<g id="edge10" class="edge">
<title>skill_ui&#45;&gt;api</title>
<path fill="none" stroke="#475569" stroke-width="1.2" d="M474.82,-1181.7C595.06,-1181.7 846.36,-1181.7 846.36,-1181.7 846.36,-1181.7 846.36,-578.21 846.36,-578.21"/>
<polygon fill="#475569" stroke="#475569" stroke-width="1.2" points="848.81,-578.21 846.36,-571.21 843.91,-578.21 848.81,-578.21"/>
</g>
<!-- runtime_ui&#45;&gt;api -->
<g id="edge11" class="edge">
<title>runtime_ui&#45;&gt;api</title>
<path fill="none" stroke="#475569" stroke-width="1.2" d="M486.01,-1272C617.48,-1272 878.36,-1272 878.36,-1272 878.36,-1272 878.36,-578.3 878.36,-578.3"/>
<polygon fill="#475569" stroke="#475569" stroke-width="1.2" points="880.81,-578.3 878.36,-571.3 875.91,-578.3 880.81,-578.3"/>
</g>
<!-- cli&#45;&gt;api -->
<g id="edge12" class="edge">
<title>cli&#45;&gt;api</title>
<path fill="none" stroke="#475569" stroke-width="1.2" d="M667.36,-1397.24C667.36,-1239.08 667.36,-544 667.36,-544 667.36,-544 772.8,-544 772.8,-544"/>
<polygon fill="#475569" stroke="#475569" stroke-width="1.2" points="772.8,-546.45 779.8,-544 772.8,-541.55 772.8,-546.45"/>
</g>
<!-- github_action&#45;&gt;cli -->
<g id="edge13" class="edge">
<title>github_action&#45;&gt;cli</title>
<path fill="none" stroke="#475569" stroke-width="1.2" d="M486.76,-1435.69C486.76,-1435.69 549.75,-1435.69 549.75,-1435.69"/>
<polygon fill="#475569" stroke="#475569" stroke-width="1.2" points="549.75,-1438.14 556.75,-1435.69 549.75,-1433.24 549.75,-1438.14"/>
</g>
<!-- github_action&#45;&gt;governance_outputs -->
<g id="edge61" class="edge">
<title>github_action&#45;&gt;governance_outputs</title>
<path fill="none" stroke="#475569" stroke-width="1.2" d="M412.36,-1410.76C412.36,-1399.32 412.36,-1388.31 412.36,-1388.31 412.36,-1388.31 3080.36,-1388.31 3080.36,-1388.31 3080.36,-1388.31 3080.36,-729.22 3080.36,-729.22"/>
<polygon fill="#475569" stroke="#475569" stroke-width="1.2" points="3082.81,-729.22 3080.36,-722.22 3077.91,-729.22 3082.81,-729.22"/>
</g>
<!-- mcp_gateway&#45;&gt;web_intel -->
<g id="edge14" class="edge">
<title>mcp_gateway&#45;&gt;web_intel</title>
<path fill="none" stroke="#475569" stroke-width="1.2" d="M495.15,-1354C550.57,-1354 613.36,-1354 613.36,-1354 613.36,-1354 613.36,-1111.88 613.36,-1111.88 613.36,-1111.88 1216.77,-1111.88 1216.77,-1111.88"/>
<polygon fill="#475569" stroke="#475569" stroke-width="1.2" points="1216.77,-1114.33 1223.77,-1111.88 1216.77,-1109.43 1216.77,-1114.33"/>
</g>
<!-- api&#45;&gt;planner -->
<g id="edge15" class="edge">
<title>api&#45;&gt;planner</title>
<path fill="none" stroke="#475569" stroke-width="1.2" d="M910.36,-569.24C910.36,-610.29 910.36,-687 910.36,-687 910.36,-687 1016.39,-687 1016.39,-687"/>
<polygon fill="#475569" stroke="#475569" stroke-width="1.2" points="1016.39,-689.45 1023.39,-687 1016.39,-684.55 1016.39,-689.45"/>
</g>
<!-- api&#45;&gt;workflow_store -->
<g id="edge16" class="edge">
<title>api&#45;&gt;workflow_store</title>
<path fill="none" stroke="#475569" stroke-width="1.2" d="M835.36,-518.6C835.36,-451.39 835.36,-274 835.36,-274 835.36,-274 1004.78,-274 1004.78,-274"/>
<polygon fill="#475569" stroke="#475569" stroke-width="1.2" points="1004.78,-276.45 1011.78,-274 1004.78,-271.55 1004.78,-276.45"/>
</g>
<!-- api&#45;&gt;policy_engine -->
<g id="edge17" class="edge">
<title>api&#45;&gt;policy_engine</title>
<path fill="none" stroke="#475569" stroke-width="1.2" d="M889.36,-518.55C889.36,-470.02 889.36,-369 889.36,-369 889.36,-369 995.4,-369 995.4,-369"/>
<polygon fill="#475569" stroke="#475569" stroke-width="1.2" points="995.4,-371.45 1002.4,-369 995.4,-366.55 995.4,-371.45"/>
</g>
<!-- api&#45;&gt;secrets -->
<g id="edge18" class="edge">
<title>api&#45;&gt;secrets</title>
<path fill="none" stroke="#475569" stroke-width="1.2" d="M942.97,-523.69C942.97,-523.69 997.23,-523.69 997.23,-523.69"/>
<polygon fill="#475569" stroke="#475569" stroke-width="1.2" points="997.23,-526.14 1004.23,-523.69 997.23,-521.24 997.23,-526.14"/>
</g>
<!-- api&#45;&gt;runtime_guards -->
<g id="edge19" class="edge">
<title>api&#45;&gt;runtime_guards</title>
<path fill="none" stroke="#475569" stroke-width="1.2" d="M942.97,-564.81C942.97,-564.81 994.37,-564.81 994.37,-564.81"/>
<polygon fill="#475569" stroke="#475569" stroke-width="1.2" points="994.37,-567.26 1001.37,-564.81 994.37,-562.36 994.37,-567.26"/>
</g>
<!-- api&#45;&gt;worker -->
<g id="edge20" class="edge">
<title>api&#45;&gt;worker</title>
<path fill="none" stroke="#475569" stroke-width="1.2" d="M943.13,-554.74C1068.94,-554.74 1297.36,-554.74 1297.36,-554.74 1297.36,-554.74 1297.36,-557.71 1297.36,-557.71"/>
<polygon fill="#475569" stroke="#475569" stroke-width="1.2" points="1294.91,-557.71 1297.36,-564.71 1299.81,-557.71 1294.91,-557.71"/>
</g>
<!-- planner&#45;&gt;workflow_spec -->
<g id="edge23" class="edge">
<title>planner&#45;&gt;workflow_spec</title>
<path fill="none" stroke="#475569" stroke-width="1.2" d="M1134.11,-702.63C1173.32,-702.63 1219.36,-702.63 1219.36,-702.63 1219.36,-702.63 1219.36,-769.55 1219.36,-769.55"/>
<polygon fill="#475569" stroke="#475569" stroke-width="1.2" points="1216.91,-769.55 1219.36,-776.55 1221.81,-769.55 1216.91,-769.55"/>
</g>
<!-- planner&#45;&gt;skill_registry -->
<g id="edge21" class="edge">
<title>planner&#45;&gt;skill_registry</title>
<path fill="none" stroke="#475569" stroke-width="1.2" d="M1061.36,-718.73C1061.36,-798.31 1061.36,-1000 1061.36,-1000 1061.36,-1000 1214.62,-1000 1214.62,-1000"/>
<polygon fill="#475569" stroke="#475569" stroke-width="1.2" points="1214.62,-1002.45 1221.62,-1000 1214.62,-997.55 1214.62,-1002.45"/>
</g>
<!-- planner&#45;&gt;codegen -->
<g id="edge22" class="edge">
<title>planner&#45;&gt;codegen</title>
<path fill="none" stroke="#475569" stroke-width="1.2" d="M1097.36,-718.7C1097.36,-779.16 1097.36,-905 1097.36,-905 1097.36,-905 1211.02,-905 1211.02,-905"/>
<polygon fill="#475569" stroke="#475569" stroke-width="1.2" points="1211.02,-907.45 1218.02,-905 1211.02,-902.55 1211.02,-907.45"/>
</g>
<!-- planner&#45;&gt;model_providers -->
<g id="edge24" class="edge">
<title>planner&#45;&gt;model_providers</title>
<path fill="none" stroke="#475569" stroke-width="1.2" d="M1134.29,-671.37C1160.53,-671.37 1186.36,-671.37 1186.36,-671.37 1186.36,-671.37 1186.36,-47 1186.36,-47 1186.36,-47 1622.96,-47 1622.96,-47"/>
<polygon fill="#475569" stroke="#475569" stroke-width="1.2" points="1622.96,-49.45 1629.96,-47 1622.96,-44.55 1622.96,-49.45"/>
</g>
<!-- workflow_store&#45;&gt;workflow_spec -->
<g id="edge25" class="edge">
<title>workflow_store&#45;&gt;workflow_spec</title>
<path fill="none" stroke="#475569" stroke-width="1.2" d="M1145.7,-295.69C1183.84,-295.69 1224.36,-295.69 1224.36,-295.69 1224.36,-295.69 1224.36,-769.4 1224.36,-769.4"/>
<polygon fill="#475569" stroke="#475569" stroke-width="1.2" points="1221.91,-769.4 1224.36,-776.4 1226.81,-769.4 1221.91,-769.4"/>
</g>
<!-- workflow_store&#45;&gt;local_state -->
<g id="edge50" class="edge">
<title>workflow_store&#45;&gt;local_state</title>
<path fill="none" stroke="#475569" stroke-width="1.2" d="M1145.85,-270.19C1450.98,-270.19 2708.36,-270.19 2708.36,-270.19 2708.36,-270.19 2708.36,-541.57 2708.36,-541.57"/>
<polygon fill="#475569" stroke="#475569" stroke-width="1.2" points="2705.91,-541.57 2708.36,-548.57 2710.81,-541.57 2705.91,-541.57"/>
</g>
<!-- policy_engine&#45;&gt;workflow_spec -->
<g id="edge26" class="edge">
<title>policy_engine&#45;&gt;workflow_spec</title>
<path fill="none" stroke="#475569" stroke-width="1.2" d="M1155.11,-384C1188.93,-384 1221.36,-384 1221.36,-384 1221.36,-384 1221.36,-769.51 1221.36,-769.51"/>
<polygon fill="#475569" stroke="#475569" stroke-width="1.2" points="1218.91,-769.51 1221.36,-776.51 1223.81,-769.51 1218.91,-769.51"/>
</g>
<!-- policy_engine&#45;&gt;evaluated -->
<g id="edge27" class="edge">
<title>policy_engine&#45;&gt;evaluated</title>
<path fill="none" stroke="#475569" stroke-width="1.2" d="M1155.05,-347.74C1388.98,-347.74 2087.36,-347.74 2087.36,-347.74 2087.36,-347.74 2087.36,-540.01 2087.36,-540.01"/>
<polygon fill="#475569" stroke="#475569" stroke-width="1.2" points="2084.91,-540.01 2087.36,-547.01 2089.81,-540.01 2084.91,-540.01"/>
</g>
<!-- policy_engine&#45;&gt;replay -->
<g id="edge56" class="edge">
<title>policy_engine&#45;&gt;replay</title>
<path fill="none" stroke="#475569" stroke-width="1.2" d="M1155.19,-357.74C1358.3,-357.74 1901.36,-357.74 1901.36,-357.74 1901.36,-357.74 1901.36,-663.68 1901.36,-663.68 1901.36,-663.68 2613.76,-663.68 2613.76,-663.68"/>
<polygon fill="#475569" stroke="#475569" stroke-width="1.2" points="2613.76,-666.13 2620.76,-663.68 2613.76,-661.23 2613.76,-666.13"/>
</g>
<!-- secrets&#45;&gt;adapters -->
<g id="edge28" class="edge">
<title>secrets&#45;&gt;adapters</title>
<path fill="none" stroke="#475569" stroke-width="1.2" d="M1153.26,-507.42C1163.91,-507.42 1171.36,-507.42 1171.36,-507.42 1171.36,-507.42 1171.36,-1151.99 1171.36,-1151.99 1171.36,-1151.99 1626.9,-1151.99 1626.9,-1151.99"/>
<polygon fill="#475569" stroke="#475569" stroke-width="1.2" points="1626.9,-1154.45 1633.9,-1152 1626.9,-1149.55 1626.9,-1154.45"/>
</g>
<!-- secrets&#45;&gt;local_state -->
<g id="edge51" class="edge">
<title>secrets&#45;&gt;local_state</title>
<path fill="none" stroke="#475569" stroke-width="1.2" d="M1153.35,-486.58C1464.45,-486.58 2655.36,-486.58 2655.36,-486.58 2655.36,-486.58 2655.36,-541.41 2655.36,-541.41"/>
<polygon fill="#475569" stroke="#475569" stroke-width="1.2" points="2652.91,-541.41 2655.36,-548.41 2657.81,-541.41 2652.91,-541.41"/>
</g>
<!-- runtime_guards&#45;&gt;worker -->
<g id="edge29" class="edge">
<title>runtime_guards&#45;&gt;worker</title>
<path fill="none" stroke="#475569" stroke-width="1.2" d="M1156.2,-583.71C1156.2,-583.71 1217.15,-583.71 1217.15,-583.71"/>
<polygon fill="#475569" stroke="#475569" stroke-width="1.2" points="1217.15,-586.16 1224.15,-583.71 1217.15,-581.26 1217.15,-586.16"/>
</g>
<!-- worker&#45;&gt;nanoclaw -->
<g id="edge30" class="edge">
<title>worker&#45;&gt;nanoclaw</title>
<path fill="none" stroke="#475569" stroke-width="1.2" d="M1225.87,-600.29C1211.84,-600.29 1201.36,-600.29 1201.36,-600.29 1201.36,-600.29 1201.36,-1198.3 1201.36,-1198.3 1201.36,-1198.3 1219.58,-1198.3 1219.58,-1198.3"/>
<polygon fill="#475569" stroke="#475569" stroke-width="1.2" points="1219.58,-1200.75 1226.58,-1198.3 1219.58,-1195.85 1219.58,-1200.75"/>
</g>
<!-- worker&#45;&gt;run -->
<g id="edge38" class="edge">
<title>worker&#45;&gt;run</title>
<path fill="none" stroke="#475569" stroke-width="1.2" d="M1273.36,-617.37C1273.36,-633.99 1273.36,-652.65 1273.36,-652.65 1273.36,-652.65 1626.75,-652.65 1626.75,-652.65"/>
<polygon fill="#475569" stroke="#475569" stroke-width="1.2" points="1626.75,-655.1 1633.75,-652.65 1626.75,-650.2 1626.75,-655.1"/>
</g>
<!-- workflow_spec&#45;&gt;draft -->
<g id="edge31" class="edge">
<title>workflow_spec&#45;&gt;draft</title>
<path fill="none" stroke="#475569" stroke-width="1.2" d="M1373.36,-778.27C1373.36,-715.58 1373.36,-581.83 1373.36,-581.83 1373.36,-581.83 1630.98,-581.83 1630.98,-581.83"/>
<polygon fill="#475569" stroke="#475569" stroke-width="1.2" points="1630.98,-584.28 1637.98,-581.83 1630.98,-579.38 1630.98,-584.28"/>
</g>
<!-- skill_registry&#45;&gt;draft -->
<g id="edge32" class="edge">
<title>skill_registry&#45;&gt;draft</title>
<path fill="none" stroke="#475569" stroke-width="1.2" d="M1371.47,-987.74C1430.14,-987.74 1502.36,-987.74 1502.36,-987.74 1502.36,-987.74 1502.36,-596.54 1502.36,-596.54 1502.36,-596.54 1631.06,-596.54 1631.06,-596.54"/>
<polygon fill="#475569" stroke="#475569" stroke-width="1.2" points="1631.06,-599 1638.06,-596.55 1631.06,-594.1 1631.06,-599"/>
</g>
<!-- codegen&#45;&gt;evaluated -->
<g id="edge33" class="edge">
<title>codegen&#45;&gt;evaluated</title>
<path fill="none" stroke="#475569" stroke-width="1.2" d="M1375.04,-924.45C1574.05,-924.45 2087.36,-924.45 2087.36,-924.45 2087.36,-924.45 2087.36,-633.87 2087.36,-633.87"/>
<polygon fill="#475569" stroke="#475569" stroke-width="1.2" points="2089.81,-633.87 2087.36,-626.87 2084.91,-633.87 2089.81,-633.87"/>
</g>
<!-- adapters&#45;&gt;run -->
<g id="edge44" class="edge">
<title>adapters&#45;&gt;run</title>
<path fill="none" stroke="#475569" stroke-width="1.2" d="M1635.68,-1139.26C1586.36,-1139.26 1527.36,-1139.26 1527.36,-1139.26 1527.36,-1139.26 1527.36,-687 1527.36,-687 1527.36,-687 1626.86,-687 1626.86,-687"/>
<polygon fill="#475569" stroke="#475569" stroke-width="1.2" points="1626.86,-689.45 1633.86,-687 1626.86,-684.55 1626.86,-689.45"/>
</g>
<!-- adapters&#45;&gt;live_systems -->
<g id="edge43" class="edge">
<title>adapters&#45;&gt;live_systems</title>
<path fill="none" stroke="#475569" stroke-width="1.2" d="M1635.73,-1145.62C1561.91,-1145.62 1452.36,-1145.62 1452.36,-1145.62 1452.36,-1145.62 1452.36,-415.26 1452.36,-415.26 1452.36,-415.26 1617.95,-415.26 1617.95,-415.26"/>
<polygon fill="#475569" stroke="#475569" stroke-width="1.2" points="1617.95,-417.71 1624.95,-415.26 1617.95,-412.81 1617.95,-417.71"/>
</g>
<!-- nanoclaw&#45;&gt;adapters -->
<g id="edge40" class="edge">
<title>nanoclaw&#45;&gt;adapters</title>
<path fill="none" stroke="#475569" stroke-width="1.2" d="M1366.5,-1186.04C1366.5,-1186.04 1627.01,-1186.04 1627.01,-1186.04"/>
<polygon fill="#475569" stroke="#475569" stroke-width="1.2" points="1627.01,-1188.49 1634.01,-1186.04 1627.01,-1183.59 1627.01,-1188.49"/>
</g>
<!-- nanoclaw&#45;&gt;hooks -->
<g id="edge41" class="edge">
<title>nanoclaw&#45;&gt;hooks</title>
<path fill="none" stroke="#475569" stroke-width="1.2" d="M1366.49,-1176.81C1464.51,-1176.81 1632.36,-1176.81 1632.36,-1176.81 1632.36,-1176.81 1632.36,-1078.66 1632.36,-1078.66"/>
<polygon fill="#475569" stroke="#475569" stroke-width="1.2" points="1634.81,-1078.66 1632.36,-1071.66 1629.91,-1078.66 1634.81,-1078.66"/>
</g>
<!-- nanoclaw&#45;&gt;docker_nodes -->
<g id="edge39" class="edge">
<title>nanoclaw&#45;&gt;docker_nodes</title>
<path fill="none" stroke="#475569" stroke-width="1.2" d="M1366.38,-1167.59C1397.91,-1167.59 1428.36,-1167.59 1428.36,-1167.59 1428.36,-1167.59 1428.36,-246.58 1428.36,-246.58 1428.36,-246.58 1617.7,-246.58 1617.7,-246.58"/>
<polygon fill="#475569" stroke="#475569" stroke-width="1.2" points="1617.7,-249.03 1624.7,-246.58 1617.7,-244.13 1617.7,-249.03"/>
</g>
<!-- hooks&#45;&gt;agent_clis -->
<g id="edge45" class="edge">
<title>hooks&#45;&gt;agent_clis</title>
<path fill="none" stroke="#475569" stroke-width="1.2" d="M1628.75,-1019C1563.29,-1019 1477.36,-1019 1477.36,-1019 1477.36,-1019 1477.36,-315.47 1477.36,-315.47 1477.36,-315.47 1622.09,-315.47 1622.09,-315.47"/>
<polygon fill="#475569" stroke="#475569" stroke-width="1.2" points="1622.09,-317.92 1629.09,-315.47 1622.09,-313.02 1622.09,-317.92"/>
</g>
<!-- web_intel&#45;&gt;evidence -->
<g id="edge49" class="edge">
<title>web_intel&#45;&gt;evidence</title>
<path fill="none" stroke="#475569" stroke-width="1.2" d="M1369.52,-1097.76C1444.88,-1097.76 1552.36,-1097.76 1552.36,-1097.76 1552.36,-1097.76 1552.36,-893.19 1552.36,-893.19 1552.36,-893.19 1623.37,-893.19 1623.37,-893.19"/>
<polygon fill="#475569" stroke="#475569" stroke-width="1.2" points="1623.37,-895.64 1630.37,-893.19 1623.37,-890.74 1623.37,-895.64"/>
</g>
<!-- web_intel&#45;&gt;web_providers -->
<g id="edge47" class="edge">
<title>web_intel&#45;&gt;web_providers</title>
<path fill="none" stroke="#475569" stroke-width="1.2" d="M1369.58,-1083.51C1388.32,-1083.51 1403.36,-1083.51 1403.36,-1083.51 1403.36,-1083.51 1403.36,-135 1403.36,-135 1403.36,-135 1631.29,-135 1631.29,-135"/>
<polygon fill="#475569" stroke="#475569" stroke-width="1.2" points="1631.29,-137.45 1638.29,-135 1631.29,-132.55 1631.29,-137.45"/>
</g>
<!-- web_intel&#45;&gt;replay -->
<g id="edge48" class="edge">
<title>web_intel&#45;&gt;replay</title>
<path fill="none" stroke="#475569" stroke-width="1.2" d="M1369.53,-1112.01C1653.79,-1112.01 2682.36,-1112.01 2682.36,-1112.01 2682.36,-1112.01 2682.36,-729.89 2682.36,-729.89"/>
<polygon fill="#475569" stroke="#475569" stroke-width="1.2" points="2684.81,-729.89 2682.36,-722.89 2679.91,-729.89 2684.81,-729.89"/>
</g>
<!-- evidence&#45;&gt;audit_bundle -->
<g id="edge57" class="edge">
<title>evidence&#45;&gt;audit_bundle</title>
<path fill="none" stroke="#475569" stroke-width="1.2" d="M1771.1,-875C2024.65,-875 2884.36,-875 2884.36,-875 2884.36,-875 2884.36,-729.37 2884.36,-729.37"/>
<polygon fill="#475569" stroke="#475569" stroke-width="1.2" points="2886.81,-729.37 2884.36,-722.37 2881.91,-729.37 2886.81,-729.37"/>
</g>
<!-- draft&#45;&gt;evaluated -->
<g id="edge34" class="edge">
<title>draft&#45;&gt;evaluated</title>
<path fill="none" stroke="#475569" stroke-width="1.2" d="M1763.04,-580.31C1763.04,-580.31 2016.61,-580.31 2016.61,-580.31"/>
<polygon fill="#475569" stroke="#475569" stroke-width="1.2" points="2016.61,-582.76 2023.61,-580.31 2016.61,-577.86 2016.61,-582.76"/>
</g>
<!-- evaluated&#45;&gt;approved -->
<g id="edge35" class="edge">
<title>evaluated&#45;&gt;approved</title>
<path fill="none" stroke="#475569" stroke-width="1.2" d="M2148.71,-584C2148.71,-584 2199.93,-584 2199.93,-584"/>
<polygon fill="#475569" stroke="#475569" stroke-width="1.2" points="2199.93,-586.45 2206.93,-584 2199.93,-581.55 2199.93,-586.45"/>
</g>
<!-- approved&#45;&gt;deployment -->
<g id="edge36" class="edge">
<title>approved&#45;&gt;deployment</title>
<path fill="none" stroke="#475569" stroke-width="1.2" d="M2355.08,-583C2355.08,-583 2406.35,-583 2406.35,-583"/>
<polygon fill="#475569" stroke="#475569" stroke-width="1.2" points="2406.35,-585.45 2413.35,-583 2406.35,-580.55 2406.35,-585.45"/>
</g>
<!-- deployment&#45;&gt;worker -->
<g id="edge37" class="edge">
<title>deployment&#45;&gt;worker</title>
<path fill="none" stroke="#475569" stroke-width="1.2" d="M2479.36,-613.75C2479.36,-624.57 2479.36,-634 2479.36,-634 2479.36,-634 1321.36,-634 1321.36,-634 1321.36,-634 1321.36,-626.22 1321.36,-626.22"/>
<polygon fill="#475569" stroke="#475569" stroke-width="1.2" points="1323.81,-626.22 1321.36,-619.22 1318.91,-626.22 1323.81,-626.22"/>
</g>
<!-- deployment&#45;&gt;local_state -->
<g id="edge52" class="edge">
<title>deployment&#45;&gt;local_state</title>
<path fill="none" stroke="#475569" stroke-width="1.2" d="M2542.98,-582C2542.98,-582 2594.18,-582 2594.18,-582"/>
<polygon fill="#475569" stroke="#475569" stroke-width="1.2" points="2594.18,-584.45 2601.18,-582 2594.18,-579.55 2594.18,-584.45"/>
</g>
<!-- run&#45;&gt;evidence -->
<g id="edge55" class="edge">
<title>run&#45;&gt;evidence</title>
<path fill="none" stroke="#475569" stroke-width="1.2" d="M1701.36,-718.87C1701.36,-718.87 1701.36,-828.08 1701.36,-828.08"/>
<polygon fill="#475569" stroke="#475569" stroke-width="1.2" points="1698.91,-828.08 1701.36,-835.08 1703.81,-828.08 1698.91,-828.08"/>
</g>
<!-- run&#45;&gt;local_state -->
<g id="edge53" class="edge">
<title>run&#45;&gt;local_state</title>
<path fill="none" stroke="#475569" stroke-width="1.2" d="M1767.47,-682C1976.92,-682 2613.36,-682 2613.36,-682 2613.36,-682 2613.36,-622.46 2613.36,-622.46"/>
<polygon fill="#475569" stroke="#475569" stroke-width="1.2" points="2615.81,-622.46 2613.36,-615.46 2610.91,-622.46 2615.81,-622.46"/>
</g>
<!-- run&#45;&gt;replay -->
<g id="edge54" class="edge">
<title>run&#45;&gt;replay</title>
<path fill="none" stroke="#475569" stroke-width="1.2" d="M1767.75,-700.32C1767.75,-700.32 2613.86,-700.32 2613.86,-700.32"/>
<polygon fill="#475569" stroke="#475569" stroke-width="1.2" points="2613.86,-702.77 2620.86,-700.32 2613.86,-697.87 2613.86,-702.77"/>
</g>
<!-- docker_nodes&#45;&gt;run -->
<g id="edge42" class="edge">
<title>docker_nodes&#45;&gt;run</title>
<path fill="none" stroke="#475569" stroke-width="1.2" d="M1626.43,-250.42C1600.28,-250.42 1577.36,-250.42 1577.36,-250.42 1577.36,-250.42 1577.36,-649.55 1577.36,-649.55 1577.36,-649.55 1626.63,-649.55 1626.63,-649.55"/>
<polygon fill="#475569" stroke="#475569" stroke-width="1.2" points="1626.63,-652 1633.63,-649.55 1626.63,-647.1 1626.63,-652"/>
</g>
<!-- agent_clis&#45;&gt;run -->
<g id="edge46" class="edge">
<title>agent_clis&#45;&gt;run</title>
<path fill="none" stroke="#475569" stroke-width="1.2" d="M1631.04,-325.68C1614.89,-325.68 1602.36,-325.68 1602.36,-325.68 1602.36,-325.68 1602.36,-646.46 1602.36,-646.46 1602.36,-646.46 1626.56,-646.46 1626.56,-646.46"/>
<polygon fill="#475569" stroke="#475569" stroke-width="1.2" points="1626.56,-648.91 1633.56,-646.46 1626.56,-644.01 1626.56,-648.91"/>
</g>
<!-- replay&#45;&gt;audit_bundle -->
<g id="edge58" class="edge">
<title>replay&#45;&gt;audit_bundle</title>
<path fill="none" stroke="#475569" stroke-width="1.2" d="M2741.24,-689C2741.24,-689 2811.87,-689 2811.87,-689"/>
<polygon fill="#475569" stroke="#475569" stroke-width="1.2" points="2811.87,-691.45 2818.87,-689 2811.87,-686.55 2811.87,-691.45"/>
</g>
<!-- audit_bundle&#45;&gt;governance_outputs -->
<g id="edge59" class="edge">
<title>audit_bundle&#45;&gt;governance_outputs</title>
<path fill="none" stroke="#475569" stroke-width="1.2" d="M2947.66,-689C2947.66,-689 2999.15,-689 2999.15,-689"/>
<polygon fill="#475569" stroke="#475569" stroke-width="1.2" points="2999.15,-691.45 3006.15,-689 2999.15,-686.55 2999.15,-691.45"/>
</g>
<!-- governance_outputs&#45;&gt;reviewer -->
<g id="edge60" class="edge">
<title>governance_outputs&#45;&gt;reviewer</title>
<path fill="none" stroke="#475569" stroke-width="1.2" d="M3152.75,-689C3152.75,-689 3204.1,-689 3204.1,-689"/>
<polygon fill="#475569" stroke="#475569" stroke-width="1.2" points="3204.1,-691.45 3211.1,-689 3204.1,-686.55 3204.1,-691.45"/>
</g>
<!-- operator -->
<g id="node1" class="node">
<title>operator</title>
<path fill="#f1f5f9" stroke="#334155" stroke-width="1.2" d="M187.89,-1296.88C187.89,-1296.88 84.36,-1296.88 84.36,-1296.88 78.36,-1296.88 72.36,-1290.88 72.36,-1284.88 72.36,-1284.88 72.36,-1259.12 72.36,-1259.12 72.36,-1253.12 78.36,-1247.12 84.36,-1247.12 84.36,-1247.12 187.89,-1247.12 187.89,-1247.12 193.89,-1247.12 199.89,-1253.12 199.89,-1259.12 199.89,-1259.12 199.89,-1284.88 199.89,-1284.88 199.89,-1290.88 193.89,-1296.88 187.89,-1296.88"/>
<text xml:space="preserve" text-anchor="middle" x="136.12" y="-1279.72" font-family="Helvetica,sans-Serif" font-size="12.00">Operators</text>
<text xml:space="preserve" text-anchor="middle" x="136.12" y="-1266.97" font-family="Helvetica,sans-Serif" font-size="12.00">builders, reviewers,</text>
<text xml:space="preserve" text-anchor="middle" x="136.12" y="-1254.22" font-family="Helvetica,sans-Serif" font-size="12.00">platform and security</text>
</g>
<!-- prompt -->
<g id="node2" class="node">
<title>prompt</title>
<path fill="#f1f5f9" stroke="#334155" stroke-width="1.2" d="M178.14,-1214.88C178.14,-1214.88 94.11,-1214.88 94.11,-1214.88 88.11,-1214.88 82.11,-1208.88 82.11,-1202.88 82.11,-1202.88 82.11,-1177.12 82.11,-1177.12 82.11,-1171.12 88.11,-1165.12 94.11,-1165.12 94.11,-1165.12 178.14,-1165.12 178.14,-1165.12 184.14,-1165.12 190.14,-1171.12 190.14,-1177.12 190.14,-1177.12 190.14,-1202.88 190.14,-1202.88 190.14,-1208.88 184.14,-1214.88 178.14,-1214.88"/>
<text xml:space="preserve" text-anchor="middle" x="136.12" y="-1197.72" font-family="Helvetica,sans-Serif" font-size="12.00">Prompt or idea</text>
<text xml:space="preserve" text-anchor="middle" x="136.12" y="-1184.97" font-family="Helvetica,sans-Serif" font-size="12.00">natural&#45;language</text>
<text xml:space="preserve" text-anchor="middle" x="136.12" y="-1172.22" font-family="Helvetica,sans-Serif" font-size="12.00">workflow request</text>
</g>
<!-- skill_md -->
<g id="node3" class="node">
<title>skill_md</title>
<path fill="#f1f5f9" stroke="#334155" stroke-width="1.2" d="M183.39,-1378.88C183.39,-1378.88 88.86,-1378.88 88.86,-1378.88 82.86,-1378.88 76.86,-1372.88 76.86,-1366.88 76.86,-1366.88 76.86,-1341.12 76.86,-1341.12 76.86,-1335.12 82.86,-1329.12 88.86,-1329.12 88.86,-1329.12 183.39,-1329.12 183.39,-1329.12 189.39,-1329.12 195.39,-1335.12 195.39,-1341.12 195.39,-1341.12 195.39,-1366.88 195.39,-1366.88 195.39,-1372.88 189.39,-1378.88 183.39,-1378.88"/>
<text xml:space="preserve" text-anchor="middle" x="136.12" y="-1361.72" font-family="Helvetica,sans-Serif" font-size="12.00">SKILL.md</text>
<text xml:space="preserve" text-anchor="middle" x="136.12" y="-1348.97" font-family="Helvetica,sans-Serif" font-size="12.00">agent skills and</text>
<text xml:space="preserve" text-anchor="middle" x="136.12" y="-1336.22" font-family="Helvetica,sans-Serif" font-size="12.00">automation recipes</text>
</g>
<!-- repository -->
<g id="node4" class="node">
<title>repository</title>
<path fill="#f1f5f9" stroke="#334155" stroke-width="1.2" d="M186.76,-1460.88C186.76,-1460.88 85.49,-1460.88 85.49,-1460.88 79.49,-1460.88 73.49,-1454.88 73.49,-1448.88 73.49,-1448.88 73.49,-1423.12 73.49,-1423.12 73.49,-1417.12 79.49,-1411.12 85.49,-1411.12 85.49,-1411.12 186.76,-1411.12 186.76,-1411.12 192.76,-1411.12 198.76,-1417.12 198.76,-1423.12 198.76,-1423.12 198.76,-1448.88 198.76,-1448.88 198.76,-1454.88 192.76,-1460.88 186.76,-1460.88"/>
<text xml:space="preserve" text-anchor="middle" x="136.12" y="-1443.72" font-family="Helvetica,sans-Serif" font-size="12.00">Repository estate</text>
<text xml:space="preserve" text-anchor="middle" x="136.12" y="-1430.97" font-family="Helvetica,sans-Serif" font-size="12.00">skills, runs, bundles,</text>
<text xml:space="preserve" text-anchor="middle" x="136.12" y="-1418.22" font-family="Helvetica,sans-Serif" font-size="12.00">connectors, CI</text>
</g>
<!-- graph_ui -->
<g id="node5" class="node">
<title>graph_ui</title>
<path fill="#dbeafe" stroke="#334155" stroke-width="1.2" d="M486.03,-1132.88C486.03,-1132.88 338.25,-1132.88 338.25,-1132.88 332.25,-1132.88 326.25,-1126.88 326.25,-1120.88 326.25,-1120.88 326.25,-1095.12 326.25,-1095.12 326.25,-1089.12 332.25,-1083.12 338.25,-1083.12 338.25,-1083.12 486.03,-1083.12 486.03,-1083.12 492.03,-1083.12 498.03,-1089.12 498.03,-1095.12 498.03,-1095.12 498.03,-1120.88 498.03,-1120.88 498.03,-1126.88 492.03,-1132.88 486.03,-1132.88"/>
<text xml:space="preserve" text-anchor="middle" x="412.14" y="-1115.72" font-family="Helvetica,sans-Serif" font-size="12.00">Workflow Graph UI</text>
<text xml:space="preserve" text-anchor="middle" x="412.14" y="-1102.97" font-family="Helvetica,sans-Serif" font-size="12.00">prompt planning, graph edits,</text>
<text xml:space="preserve" text-anchor="middle" x="412.14" y="-1090.22" font-family="Helvetica,sans-Serif" font-size="12.00">ports, branches, deploy/run</text>
</g>
<!-- skill_ui -->
<g id="node6" class="node">
<title>skill_ui</title>
<path fill="#dbeafe" stroke="#334155" stroke-width="1.2" d="M462.41,-1214.88C462.41,-1214.88 361.88,-1214.88 361.88,-1214.88 355.88,-1214.88 349.88,-1208.88 349.88,-1202.88 349.88,-1202.88 349.88,-1177.12 349.88,-1177.12 349.88,-1171.12 355.88,-1165.12 361.88,-1165.12 361.88,-1165.12 462.41,-1165.12 462.41,-1165.12 468.41,-1165.12 474.41,-1171.12 474.41,-1177.12 474.41,-1177.12 474.41,-1202.88 474.41,-1202.88 474.41,-1208.88 468.41,-1214.88 462.41,-1214.88"/>
<text xml:space="preserve" text-anchor="middle" x="412.14" y="-1197.72" font-family="Helvetica,sans-Serif" font-size="12.00">Skill Governance UI</text>
<text xml:space="preserve" text-anchor="middle" x="412.14" y="-1184.97" font-family="Helvetica,sans-Serif" font-size="12.00">compatibility, policy,</text>
<text xml:space="preserve" text-anchor="middle" x="412.14" y="-1172.22" font-family="Helvetica,sans-Serif" font-size="12.00">replay, audit handoff</text>
</g>
<!-- runtime_ui -->
<g id="node7" class="node">
<title>runtime_ui</title>
<path fill="#dbeafe" stroke="#334155" stroke-width="1.2" d="M473.66,-1296.88C473.66,-1296.88 350.63,-1296.88 350.63,-1296.88 344.63,-1296.88 338.63,-1290.88 338.63,-1284.88 338.63,-1284.88 338.63,-1259.12 338.63,-1259.12 338.63,-1253.12 344.63,-1247.12 350.63,-1247.12 350.63,-1247.12 473.66,-1247.12 473.66,-1247.12 479.66,-1247.12 485.66,-1253.12 485.66,-1259.12 485.66,-1259.12 485.66,-1284.88 485.66,-1284.88 485.66,-1290.88 479.66,-1296.88 473.66,-1296.88"/>
<text xml:space="preserve" text-anchor="middle" x="412.14" y="-1279.72" font-family="Helvetica,sans-Serif" font-size="12.00">Runtime Panels</text>
<text xml:space="preserve" text-anchor="middle" x="412.14" y="-1266.97" font-family="Helvetica,sans-Serif" font-size="12.00">provider status, budgets,</text>
<text xml:space="preserve" text-anchor="middle" x="412.14" y="-1254.22" font-family="Helvetica,sans-Serif" font-size="12.00">memory, run history</text>
</g>
<!-- cli -->
<g id="node8" class="node">
<title>cli</title>
<path fill="#dbeafe" stroke="#334155" stroke-width="1.2" d="M709.06,-1460.26C709.06,-1460.26 571.03,-1460.26 571.03,-1460.26 565.03,-1460.26 559.03,-1454.26 559.03,-1448.26 559.03,-1448.26 559.03,-1409.74 559.03,-1409.74 559.03,-1403.74 565.03,-1397.74 571.03,-1397.74 571.03,-1397.74 709.06,-1397.74 709.06,-1397.74 715.06,-1397.74 721.06,-1403.74 721.06,-1409.74 721.06,-1409.74 721.06,-1448.26 721.06,-1448.26 721.06,-1454.26 715.06,-1460.26 709.06,-1460.26"/>
<text xml:space="preserve" text-anchor="middle" x="640.05" y="-1443.1" font-family="Helvetica,sans-Serif" font-size="12.00">kelp&#45;claw CLI</text>
<text xml:space="preserve" text-anchor="middle" x="640.05" y="-1430.35" font-family="Helvetica,sans-Serif" font-size="12.00">compat, run&#45;skill,</text>
<text xml:space="preserve" text-anchor="middle" x="640.05" y="-1417.6" font-family="Helvetica,sans-Serif" font-size="12.00">policy explain, audit export,</text>
<text xml:space="preserve" text-anchor="middle" x="640.05" y="-1404.85" font-family="Helvetica,sans-Serif" font-size="12.00">inventory, web, evidence</text>
</g>
<!-- github_action -->
<g id="node9" class="node">
<title>github_action</title>
<path fill="#dbeafe" stroke="#334155" stroke-width="1.2" d="M474.41,-1460.88C474.41,-1460.88 349.88,-1460.88 349.88,-1460.88 343.88,-1460.88 337.88,-1454.88 337.88,-1448.88 337.88,-1448.88 337.88,-1423.12 337.88,-1423.12 337.88,-1417.12 343.88,-1411.12 349.88,-1411.12 349.88,-1411.12 474.41,-1411.12 474.41,-1411.12 480.41,-1411.12 486.41,-1417.12 486.41,-1423.12 486.41,-1423.12 486.41,-1448.88 486.41,-1448.88 486.41,-1454.88 480.41,-1460.88 474.41,-1460.88"/>
<text xml:space="preserve" text-anchor="middle" x="412.14" y="-1443.72" font-family="Helvetica,sans-Serif" font-size="12.00">GitHub Action</text>
<text xml:space="preserve" text-anchor="middle" x="412.14" y="-1430.97" font-family="Helvetica,sans-Serif" font-size="12.00">PR audit, SARIF upload,</text>
<text xml:space="preserve" text-anchor="middle" x="412.14" y="-1418.22" font-family="Helvetica,sans-Serif" font-size="12.00">inventory coverage</text>
</g>
<!-- mcp_gateway -->
<g id="node10" class="node">
<title>mcp_gateway</title>
<path fill="#dbeafe" stroke="#334155" stroke-width="1.2" d="M482.66,-1378.88C482.66,-1378.88 341.63,-1378.88 341.63,-1378.88 335.63,-1378.88 329.63,-1372.88 329.63,-1366.88 329.63,-1366.88 329.63,-1341.12 329.63,-1341.12 329.63,-1335.12 335.63,-1329.12 341.63,-1329.12 341.63,-1329.12 482.66,-1329.12 482.66,-1329.12 488.66,-1329.12 494.66,-1335.12 494.66,-1341.12 494.66,-1341.12 494.66,-1366.88 494.66,-1366.88 494.66,-1372.88 488.66,-1378.88 482.66,-1378.88"/>
<text xml:space="preserve" text-anchor="middle" x="412.14" y="-1361.72" font-family="Helvetica,sans-Serif" font-size="12.00">MCP Web Gateway</text>
<text xml:space="preserve" text-anchor="middle" x="412.14" y="-1348.97" font-family="Helvetica,sans-Serif" font-size="12.00">policy&#45;bound web search,</text>
<text xml:space="preserve" text-anchor="middle" x="412.14" y="-1336.22" font-family="Helvetica,sans-Serif" font-size="12.00">fetch, answer, browser tools</text>
</g>
<!-- api -->
<g id="node11" class="node">
<title>api</title>
<path fill="#ede9fe" stroke="#334155" stroke-width="1.2" d="M930.59,-568.88C930.59,-568.88 794.06,-568.88 794.06,-568.88 788.06,-568.88 782.06,-562.88 782.06,-556.88 782.06,-556.88 782.06,-531.12 782.06,-531.12 782.06,-525.12 788.06,-519.12 794.06,-519.12 794.06,-519.12 930.59,-519.12 930.59,-519.12 936.59,-519.12 942.59,-525.12 942.59,-531.12 942.59,-531.12 942.59,-556.88 942.59,-556.88 942.59,-562.88 936.59,-568.88 930.59,-568.88"/>
<text xml:space="preserve" text-anchor="middle" x="862.33" y="-551.73" font-family="Helvetica,sans-Serif" font-size="12.00">Fastify API</text>
<text xml:space="preserve" text-anchor="middle" x="862.33" y="-538.98" font-family="Helvetica,sans-Serif" font-size="12.00">planning, workflow state,</text>
<text xml:space="preserve" text-anchor="middle" x="862.33" y="-526.23" font-family="Helvetica,sans-Serif" font-size="12.00">approval, execution control</text>
</g>
<!-- planner -->
<g id="node12" class="node">
<title>planner</title>
<path fill="#ede9fe" stroke="#334155" stroke-width="1.2" d="M1121.75,-718.26C1121.75,-718.26 1037.72,-718.26 1037.72,-718.26 1031.72,-718.26 1025.72,-712.26 1025.72,-706.26 1025.72,-706.26 1025.72,-667.74 1025.72,-667.74 1025.72,-661.74 1031.72,-655.74 1037.72,-655.74 1037.72,-655.74 1121.75,-655.74 1121.75,-655.74 1127.75,-655.74 1133.75,-661.74 1133.75,-667.74 1133.75,-667.74 1133.75,-706.26 1133.75,-706.26 1133.75,-712.26 1127.75,-718.26 1121.75,-718.26"/>
<text xml:space="preserve" text-anchor="middle" x="1079.73" y="-701.1" font-family="Helvetica,sans-Serif" font-size="12.00">Planner service</text>
<text xml:space="preserve" text-anchor="middle" x="1079.73" y="-688.35" font-family="Helvetica,sans-Serif" font-size="12.00">registry reuse,</text>
<text xml:space="preserve" text-anchor="middle" x="1079.73" y="-675.6" font-family="Helvetica,sans-Serif" font-size="12.00">clarifications,</text>
<text xml:space="preserve" text-anchor="middle" x="1079.73" y="-662.85" font-family="Helvetica,sans-Serif" font-size="12.00">codegen fallback</text>
</g>
<!-- workflow_store -->
<g id="node13" class="node">
<title>workflow_store</title>
<path fill="#ede9fe" stroke="#334155" stroke-width="1.2" d="M1133.37,-305.26C1133.37,-305.26 1026.09,-305.26 1026.09,-305.26 1020.09,-305.26 1014.09,-299.26 1014.09,-293.26 1014.09,-293.26 1014.09,-254.74 1014.09,-254.74 1014.09,-248.74 1020.09,-242.74 1026.09,-242.74 1026.09,-242.74 1133.37,-242.74 1133.37,-242.74 1139.37,-242.74 1145.37,-248.74 1145.37,-254.74 1145.37,-254.74 1145.37,-293.26 1145.37,-293.26 1145.37,-299.26 1139.37,-305.26 1133.37,-305.26"/>
<text xml:space="preserve" text-anchor="middle" x="1079.73" y="-288.1" font-family="Helvetica,sans-Serif" font-size="12.00">Workflow persistence</text>
<text xml:space="preserve" text-anchor="middle" x="1079.73" y="-275.35" font-family="Helvetica,sans-Serif" font-size="12.00">revision history,</text>
<text xml:space="preserve" text-anchor="middle" x="1079.73" y="-262.6" font-family="Helvetica,sans-Serif" font-size="12.00">approval state,</text>
<text xml:space="preserve" text-anchor="middle" x="1079.73" y="-249.85" font-family="Helvetica,sans-Serif" font-size="12.00">deployment records</text>
</g>
<!-- policy_engine -->
<g id="node14" class="node">
<title>policy_engine</title>
<path fill="#ede9fe" stroke="#334155" stroke-width="1.2" d="M1142.75,-400.26C1142.75,-400.26 1016.72,-400.26 1016.72,-400.26 1010.72,-400.26 1004.72,-394.26 1004.72,-388.26 1004.72,-388.26 1004.72,-349.74 1004.72,-349.74 1004.72,-343.74 1010.72,-337.74 1016.72,-337.74 1016.72,-337.74 1142.75,-337.74 1142.75,-337.74 1148.75,-337.74 1154.75,-343.74 1154.75,-349.74 1154.75,-349.74 1154.75,-388.26 1154.75,-388.26 1154.75,-394.26 1148.75,-400.26 1142.75,-400.26"/>
<text xml:space="preserve" text-anchor="middle" x="1079.73" y="-383.1" font-family="Helvetica,sans-Serif" font-size="12.00">Policy engine</text>
<text xml:space="preserve" text-anchor="middle" x="1079.73" y="-370.35" font-family="Helvetica,sans-Serif" font-size="12.00">baseline, PII, finance,</text>
<text xml:space="preserve" text-anchor="middle" x="1079.73" y="-357.6" font-family="Helvetica,sans-Serif" font-size="12.00">SG/APAC, web, browser,</text>
<text xml:space="preserve" text-anchor="middle" x="1079.73" y="-344.85" font-family="Helvetica,sans-Serif" font-size="12.00">shell safety</text>
</g>
<!-- secrets -->
<g id="node15" class="node">
<title>secrets</title>
<path fill="#ede9fe" stroke="#334155" stroke-width="1.2" d="M1140.87,-528.26C1140.87,-528.26 1018.59,-528.26 1018.59,-528.26 1012.59,-528.26 1006.59,-522.26 1006.59,-516.26 1006.59,-516.26 1006.59,-477.74 1006.59,-477.74 1006.59,-471.74 1012.59,-465.74 1018.59,-465.74 1018.59,-465.74 1140.87,-465.74 1140.87,-465.74 1146.87,-465.74 1152.87,-471.74 1152.87,-477.74 1152.87,-477.74 1152.87,-516.26 1152.87,-516.26 1152.87,-522.26 1146.87,-528.26 1140.87,-528.26"/>
<text xml:space="preserve" text-anchor="middle" x="1079.73" y="-511.1" font-family="Helvetica,sans-Serif" font-size="12.00">Secrets and integrations</text>
<text xml:space="preserve" text-anchor="middle" x="1079.73" y="-498.35" font-family="Helvetica,sans-Serif" font-size="12.00">encrypted local store,</text>
<text xml:space="preserve" text-anchor="middle" x="1079.73" y="-485.6" font-family="Helvetica,sans-Serif" font-size="12.00">secret refs, OAuth,</text>
<text xml:space="preserve" text-anchor="middle" x="1079.73" y="-472.85" font-family="Helvetica,sans-Serif" font-size="12.00">provider config</text>
</g>
<!-- runtime_guards -->
<g id="node16" class="node">
<title>runtime_guards</title>
<path fill="#ede9fe" stroke="#334155" stroke-width="1.2" d="M1143.87,-623.26C1143.87,-623.26 1015.59,-623.26 1015.59,-623.26 1009.59,-623.26 1003.59,-617.26 1003.59,-611.26 1003.59,-611.26 1003.59,-572.74 1003.59,-572.74 1003.59,-566.74 1009.59,-560.74 1015.59,-560.74 1015.59,-560.74 1143.87,-560.74 1143.87,-560.74 1149.87,-560.74 1155.87,-566.74 1155.87,-572.74 1155.87,-572.74 1155.87,-611.26 1155.87,-611.26 1155.87,-617.26 1149.87,-623.26 1143.87,-623.26"/>
<text xml:space="preserve" text-anchor="middle" x="1079.73" y="-606.1" font-family="Helvetica,sans-Serif" font-size="12.00">Runtime guards</text>
<text xml:space="preserve" text-anchor="middle" x="1079.73" y="-593.35" font-family="Helvetica,sans-Serif" font-size="12.00">budget ledger,</text>
<text xml:space="preserve" text-anchor="middle" x="1079.73" y="-580.6" font-family="Helvetica,sans-Serif" font-size="12.00">provider status,</text>
<text xml:space="preserve" text-anchor="middle" x="1079.73" y="-567.85" font-family="Helvetica,sans-Serif" font-size="12.00">router and memory traces</text>
</g>
<!-- worker -->
<g id="node17" class="node">
<title>worker</title>
<path fill="#ede9fe" stroke="#334155" stroke-width="1.2" d="M1356.78,-616.88C1356.78,-616.88 1238.25,-616.88 1238.25,-616.88 1232.25,-616.88 1226.25,-610.88 1226.25,-604.88 1226.25,-604.88 1226.25,-579.12 1226.25,-579.12 1226.25,-573.12 1232.25,-567.12 1238.25,-567.12 1238.25,-567.12 1356.78,-567.12 1356.78,-567.12 1362.78,-567.12 1368.78,-573.12 1368.78,-579.12 1368.78,-579.12 1368.78,-604.88 1368.78,-604.88 1368.78,-610.88 1362.78,-616.88 1356.78,-616.88"/>
<text xml:space="preserve" text-anchor="middle" x="1297.51" y="-599.73" font-family="Helvetica,sans-Serif" font-size="12.00">Worker and jobs</text>
<text xml:space="preserve" text-anchor="middle" x="1297.51" y="-586.98" font-family="Helvetica,sans-Serif" font-size="12.00">queue, schedules,</text>
<text xml:space="preserve" text-anchor="middle" x="1297.51" y="-574.23" font-family="Helvetica,sans-Serif" font-size="12.00">checkpoints, run history</text>
</g>
<!-- workflow_spec -->
<g id="node18" class="node">
<title>workflow_spec</title>
<path fill="#dcfce7" stroke="#334155" stroke-width="1.2" d="M1366.15,-841.26C1366.15,-841.26 1228.87,-841.26 1228.87,-841.26 1222.87,-841.26 1216.87,-835.26 1216.87,-829.26 1216.87,-829.26 1216.87,-790.74 1216.87,-790.74 1216.87,-784.74 1222.87,-778.74 1228.87,-778.74 1228.87,-778.74 1366.15,-778.74 1366.15,-778.74 1372.15,-778.74 1378.15,-784.74 1378.15,-790.74 1378.15,-790.74 1378.15,-829.26 1378.15,-829.26 1378.15,-835.26 1372.15,-841.26 1366.15,-841.26"/>
<text xml:space="preserve" text-anchor="middle" x="1297.51" y="-824.1" font-family="Helvetica,sans-Serif" font-size="12.00">packages/workflow&#45;spec</text>
<text xml:space="preserve" text-anchor="middle" x="1297.51" y="-811.35" font-family="Helvetica,sans-Serif" font-size="12.00">v1 JSON IR, Zod schemas,</text>
<text xml:space="preserve" text-anchor="middle" x="1297.51" y="-798.6" font-family="Helvetica,sans-Serif" font-size="12.00">JSON Schema, canonical</text>
<text xml:space="preserve" text-anchor="middle" x="1297.51" y="-785.85" font-family="Helvetica,sans-Serif" font-size="12.00">serialization, fixtures</text>
</g>
<!-- skill_registry -->
<g id="node19" class="node">
<title>skill_registry</title>
<path fill="#dcfce7" stroke="#334155" stroke-width="1.2" d="M1359.03,-1031.26C1359.03,-1031.26 1236,-1031.26 1236,-1031.26 1230,-1031.26 1224,-1025.26 1224,-1019.26 1224,-1019.26 1224,-980.74 1224,-980.74 1224,-974.74 1230,-968.74 1236,-968.74 1236,-968.74 1359.03,-968.74 1359.03,-968.74 1365.03,-968.74 1371.03,-974.74 1371.03,-980.74 1371.03,-980.74 1371.03,-1019.26 1371.03,-1019.26 1371.03,-1025.26 1365.03,-1031.26 1359.03,-1031.26"/>
<text xml:space="preserve" text-anchor="middle" x="1297.51" y="-1014.1" font-family="Helvetica,sans-Serif" font-size="12.00">packages/skill&#45;registry</text>
<text xml:space="preserve" text-anchor="middle" x="1297.51" y="-1001.35" font-family="Helvetica,sans-Serif" font-size="12.00">built&#45;in skills, metadata,</text>
<text xml:space="preserve" text-anchor="middle" x="1297.51" y="-988.6" font-family="Helvetica,sans-Serif" font-size="12.00">metaprompts, validation,</text>
<text xml:space="preserve" text-anchor="middle" x="1297.51" y="-975.85" font-family="Helvetica,sans-Serif" font-size="12.00">example fixtures</text>
</g>
<!-- codegen -->
<g id="node20" class="node">
<title>codegen</title>
<path fill="#dcfce7" stroke="#334155" stroke-width="1.2" d="M1362.78,-936.26C1362.78,-936.26 1232.25,-936.26 1232.25,-936.26 1226.25,-936.26 1220.25,-930.26 1220.25,-924.26 1220.25,-924.26 1220.25,-885.74 1220.25,-885.74 1220.25,-879.74 1226.25,-873.74 1232.25,-873.74 1232.25,-873.74 1362.78,-873.74 1362.78,-873.74 1368.78,-873.74 1374.78,-879.74 1374.78,-885.74 1374.78,-885.74 1374.78,-924.26 1374.78,-924.26 1374.78,-930.26 1368.78,-936.26 1362.78,-936.26"/>
<text xml:space="preserve" text-anchor="middle" x="1297.51" y="-919.1" font-family="Helvetica,sans-Serif" font-size="12.00">packages/codegen</text>
<text xml:space="preserve" text-anchor="middle" x="1297.51" y="-906.35" font-family="Helvetica,sans-Serif" font-size="12.00">generated artifacts,</text>
<text xml:space="preserve" text-anchor="middle" x="1297.51" y="-893.6" font-family="Helvetica,sans-Serif" font-size="12.00">checksums, provenance,</text>
<text xml:space="preserve" text-anchor="middle" x="1297.51" y="-880.85" font-family="Helvetica,sans-Serif" font-size="12.00">review and promote gates</text>
</g>
<!-- adapters -->
<g id="node21" class="node">
<title>adapters</title>
<path fill="#dcfce7" stroke="#334155" stroke-width="1.2" d="M1754.79,-1195.26C1754.79,-1195.26 1648.26,-1195.26 1648.26,-1195.26 1642.26,-1195.26 1636.26,-1189.26 1636.26,-1183.26 1636.26,-1183.26 1636.26,-1144.74 1636.26,-1144.74 1636.26,-1138.74 1642.26,-1132.74 1648.26,-1132.74 1648.26,-1132.74 1754.79,-1132.74 1754.79,-1132.74 1760.79,-1132.74 1766.79,-1138.74 1766.79,-1144.74 1766.79,-1144.74 1766.79,-1183.26 1766.79,-1183.26 1766.79,-1189.26 1760.79,-1195.26 1754.79,-1195.26"/>
<text xml:space="preserve" text-anchor="middle" x="1701.53" y="-1178.1" font-family="Helvetica,sans-Serif" font-size="12.00">packages/adapters</text>
<text xml:space="preserve" text-anchor="middle" x="1701.53" y="-1165.35" font-family="Helvetica,sans-Serif" font-size="12.00">Gmail, Sheets, email,</text>
<text xml:space="preserve" text-anchor="middle" x="1701.53" y="-1152.6" font-family="Helvetica,sans-Serif" font-size="12.00">chat, GitHub, SaaS,</text>
<text xml:space="preserve" text-anchor="middle" x="1701.53" y="-1139.85" font-family="Helvetica,sans-Serif" font-size="12.00">webhook, database</text>
</g>
<!-- nanoclaw -->
<g id="node22" class="node">
<title>nanoclaw</title>
<path fill="#dcfce7" stroke="#334155" stroke-width="1.2" d="M1354.15,-1233.63C1354.15,-1233.63 1240.87,-1233.63 1240.87,-1233.63 1234.87,-1233.63 1228.87,-1227.63 1228.87,-1221.63 1228.87,-1221.63 1228.87,-1170.37 1228.87,-1170.37 1228.87,-1164.37 1234.87,-1158.37 1240.87,-1158.37 1240.87,-1158.37 1354.15,-1158.37 1354.15,-1158.37 1360.15,-1158.37 1366.15,-1164.37 1366.15,-1170.37 1366.15,-1170.37 1366.15,-1221.63 1366.15,-1221.63 1366.15,-1227.63 1360.15,-1233.63 1354.15,-1233.63"/>
<text xml:space="preserve" text-anchor="middle" x="1297.51" y="-1216.47" font-family="Helvetica,sans-Serif" font-size="12.00">packages/nanoclaw</text>
<text xml:space="preserve" text-anchor="middle" x="1297.51" y="-1203.72" font-family="Helvetica,sans-Serif" font-size="12.00">DAG compiler,</text>
<text xml:space="preserve" text-anchor="middle" x="1297.51" y="-1190.97" font-family="Helvetica,sans-Serif" font-size="12.00">approved&#45;run gate,</text>
<text xml:space="preserve" text-anchor="middle" x="1297.51" y="-1178.22" font-family="Helvetica,sans-Serif" font-size="12.00">Docker and in&#45;process</text>
<text xml:space="preserve" text-anchor="middle" x="1297.51" y="-1165.47" font-family="Helvetica,sans-Serif" font-size="12.00">execution</text>
</g>
<!-- hooks -->
<g id="node23" class="node">
<title>hooks</title>
<path fill="#dcfce7" stroke="#334155" stroke-width="1.2" d="M1761.92,-1069.26C1761.92,-1069.26 1641.14,-1069.26 1641.14,-1069.26 1635.14,-1069.26 1629.14,-1063.26 1629.14,-1057.26 1629.14,-1057.26 1629.14,-1018.74 1629.14,-1018.74 1629.14,-1012.74 1635.14,-1006.74 1641.14,-1006.74 1641.14,-1006.74 1761.92,-1006.74 1761.92,-1006.74 1767.92,-1006.74 1773.92,-1012.74 1773.92,-1018.74 1773.92,-1018.74 1773.92,-1057.26 1773.92,-1057.26 1773.92,-1063.26 1767.92,-1069.26 1761.92,-1069.26"/>
<text xml:space="preserve" text-anchor="middle" x="1701.53" y="-1052.1" font-family="Helvetica,sans-Serif" font-size="12.00">packages/agent&#45;hooks</text>
<text xml:space="preserve" text-anchor="middle" x="1701.53" y="-1039.35" font-family="Helvetica,sans-Serif" font-size="12.00">Codex, Claude, Goose,</text>
<text xml:space="preserve" text-anchor="middle" x="1701.53" y="-1026.6" font-family="Helvetica,sans-Serif" font-size="12.00">custom&#45;agent tool&#45;event</text>
<text xml:space="preserve" text-anchor="middle" x="1701.53" y="-1013.85" font-family="Helvetica,sans-Serif" font-size="12.00">normalization</text>
</g>
<!-- web_intel -->
<g id="node24" class="node">
<title>web_intel</title>
<path fill="#dcfce7" stroke="#334155" stroke-width="1.2" d="M1357.15,-1126.26C1357.15,-1126.26 1237.87,-1126.26 1237.87,-1126.26 1231.87,-1126.26 1225.87,-1120.26 1225.87,-1114.26 1225.87,-1114.26 1225.87,-1075.74 1225.87,-1075.74 1225.87,-1069.74 1231.87,-1063.74 1237.87,-1063.74 1237.87,-1063.74 1357.15,-1063.74 1357.15,-1063.74 1363.15,-1063.74 1369.15,-1069.74 1369.15,-1075.74 1369.15,-1075.74 1369.15,-1114.26 1369.15,-1114.26 1369.15,-1120.26 1363.15,-1126.26 1357.15,-1126.26"/>
<text xml:space="preserve" text-anchor="middle" x="1297.51" y="-1109.1" font-family="Helvetica,sans-Serif" font-size="12.00">packages/web&#45;intel</text>
<text xml:space="preserve" text-anchor="middle" x="1297.51" y="-1096.35" font-family="Helvetica,sans-Serif" font-size="12.00">Exa/TinyFish search,</text>
<text xml:space="preserve" text-anchor="middle" x="1297.51" y="-1083.6" font-family="Helvetica,sans-Serif" font-size="12.00">fetch, answer, research,</text>
<text xml:space="preserve" text-anchor="middle" x="1297.51" y="-1070.85" font-family="Helvetica,sans-Serif" font-size="12.00">browser evidence</text>
</g>
<!-- evidence -->
<g id="node25" class="node">
<title>evidence</title>
<path fill="#dcfce7" stroke="#334155" stroke-width="1.2" d="M1758.54,-912.63C1758.54,-912.63 1644.51,-912.63 1644.51,-912.63 1638.51,-912.63 1632.51,-906.63 1632.51,-900.63 1632.51,-900.63 1632.51,-849.37 1632.51,-849.37 1632.51,-843.37 1638.51,-837.37 1644.51,-837.37 1644.51,-837.37 1758.54,-837.37 1758.54,-837.37 1764.54,-837.37 1770.54,-843.37 1770.54,-849.37 1770.54,-849.37 1770.54,-900.63 1770.54,-900.63 1770.54,-906.63 1764.54,-912.63 1758.54,-912.63"/>
<text xml:space="preserve" text-anchor="middle" x="1701.53" y="-895.48" font-family="Helvetica,sans-Serif" font-size="12.00">packages/evidence</text>
<text xml:space="preserve" text-anchor="middle" x="1701.53" y="-882.73" font-family="Helvetica,sans-Serif" font-size="12.00">local evidence vault,</text>
<text xml:space="preserve" text-anchor="middle" x="1701.53" y="-869.98" font-family="Helvetica,sans-Serif" font-size="12.00">findings imports,</text>
<text xml:space="preserve" text-anchor="middle" x="1701.53" y="-857.23" font-family="Helvetica,sans-Serif" font-size="12.00">custody, QA, retest diff,</text>
<text xml:space="preserve" text-anchor="middle" x="1701.53" y="-844.48" font-family="Helvetica,sans-Serif" font-size="12.00">static viewer</text>
</g>
<!-- draft -->
<g id="node26" class="node">
<title>draft</title>
<path fill="#ffedd5" stroke="#334155" stroke-width="1.2" d="M1750.67,-611.26C1750.67,-611.26 1652.39,-611.26 1652.39,-611.26 1646.39,-611.26 1640.39,-605.26 1640.39,-599.26 1640.39,-599.26 1640.39,-560.74 1640.39,-560.74 1640.39,-554.74 1646.39,-548.74 1652.39,-548.74 1652.39,-548.74 1750.67,-548.74 1750.67,-548.74 1756.67,-548.74 1762.67,-554.74 1762.67,-560.74 1762.67,-560.74 1762.67,-599.26 1762.67,-599.26 1762.67,-605.26 1756.67,-611.26 1750.67,-611.26"/>
<text xml:space="preserve" text-anchor="middle" x="1701.53" y="-594.1" font-family="Helvetica,sans-Serif" font-size="12.00">Draft workflow</text>
<text xml:space="preserve" text-anchor="middle" x="1701.53" y="-581.35" font-family="Helvetica,sans-Serif" font-size="12.00">editable graph,</text>
<text xml:space="preserve" text-anchor="middle" x="1701.53" y="-568.6" font-family="Helvetica,sans-Serif" font-size="12.00">accepted plan,</text>
<text xml:space="preserve" text-anchor="middle" x="1701.53" y="-555.85" font-family="Helvetica,sans-Serif" font-size="12.00">branchable revision</text>
</g>
<!-- evaluated -->
<g id="node27" class="node">
<title>evaluated</title>
<path fill="#ffedd5" stroke="#334155" stroke-width="1.2" d="M2136.18,-624.63C2136.18,-624.63 2037.9,-624.63 2037.9,-624.63 2031.9,-624.63 2025.9,-618.63 2025.9,-612.63 2025.9,-612.63 2025.9,-561.37 2025.9,-561.37 2025.9,-555.37 2031.9,-549.37 2037.9,-549.37 2037.9,-549.37 2136.18,-549.37 2136.18,-549.37 2142.18,-549.37 2148.18,-555.37 2148.18,-561.37 2148.18,-561.37 2148.18,-612.63 2148.18,-612.63 2148.18,-618.63 2142.18,-624.63 2136.18,-624.63"/>
<text xml:space="preserve" text-anchor="middle" x="2087.04" y="-607.48" font-family="Helvetica,sans-Serif" font-size="12.00">Evaluated draft</text>
<text xml:space="preserve" text-anchor="middle" x="2087.04" y="-594.73" font-family="Helvetica,sans-Serif" font-size="12.00">schema checks,</text>
<text xml:space="preserve" text-anchor="middle" x="2087.04" y="-581.98" font-family="Helvetica,sans-Serif" font-size="12.00">policy decisions,</text>
<text xml:space="preserve" text-anchor="middle" x="2087.04" y="-569.23" font-family="Helvetica,sans-Serif" font-size="12.00">mock/Docker gates,</text>
<text xml:space="preserve" text-anchor="middle" x="2087.04" y="-556.48" font-family="Helvetica,sans-Serif" font-size="12.00">codegen review</text>
</g>
<!-- approved -->
<g id="node28" class="node">
<title>approved</title>
<path fill="#ffedd5" stroke="#334155" stroke-width="1.2" d="M2342.71,-615.26C2342.71,-615.26 2221.18,-615.26 2221.18,-615.26 2215.18,-615.26 2209.18,-609.26 2209.18,-603.26 2209.18,-603.26 2209.18,-564.74 2209.18,-564.74 2209.18,-558.74 2215.18,-552.74 2221.18,-552.74 2221.18,-552.74 2342.71,-552.74 2342.71,-552.74 2348.71,-552.74 2354.71,-558.74 2354.71,-564.74 2354.71,-564.74 2354.71,-603.26 2354.71,-603.26 2354.71,-609.26 2348.71,-615.26 2342.71,-615.26"/>
<text xml:space="preserve" text-anchor="middle" x="2281.95" y="-598.1" font-family="Helvetica,sans-Serif" font-size="12.00">Approved revision</text>
<text xml:space="preserve" text-anchor="middle" x="2281.95" y="-585.35" font-family="Helvetica,sans-Serif" font-size="12.00">frozen DAG hash,</text>
<text xml:space="preserve" text-anchor="middle" x="2281.95" y="-572.6" font-family="Helvetica,sans-Serif" font-size="12.00">compiled node order,</text>
<text xml:space="preserve" text-anchor="middle" x="2281.95" y="-559.85" font-family="Helvetica,sans-Serif" font-size="12.00">approver and timestamp</text>
</g>
<!-- deployment -->
<g id="node29" class="node">
<title>deployment</title>
<path fill="#ffedd5" stroke="#334155" stroke-width="1.2" d="M2530.49,-613.26C2530.49,-613.26 2427.71,-613.26 2427.71,-613.26 2421.71,-613.26 2415.71,-607.26 2415.71,-601.26 2415.71,-601.26 2415.71,-562.74 2415.71,-562.74 2415.71,-556.74 2421.71,-550.74 2427.71,-550.74 2427.71,-550.74 2530.49,-550.74 2530.49,-550.74 2536.49,-550.74 2542.49,-556.74 2542.49,-562.74 2542.49,-562.74 2542.49,-601.26 2542.49,-601.26 2542.49,-607.26 2536.49,-613.26 2530.49,-613.26"/>
<text xml:space="preserve" text-anchor="middle" x="2479.1" y="-596.1" font-family="Helvetica,sans-Serif" font-size="12.00">Deployment records</text>
<text xml:space="preserve" text-anchor="middle" x="2479.1" y="-583.35" font-family="Helvetica,sans-Serif" font-size="12.00">activation artifacts,</text>
<text xml:space="preserve" text-anchor="middle" x="2479.1" y="-570.6" font-family="Helvetica,sans-Serif" font-size="12.00">runner.configuration,</text>
<text xml:space="preserve" text-anchor="middle" x="2479.1" y="-557.85" font-family="Helvetica,sans-Serif" font-size="12.00">schedules</text>
</g>
<!-- run -->
<g id="node30" class="node">
<title>run</title>
<path fill="#ffedd5" stroke="#334155" stroke-width="1.2" d="M1755.17,-718.63C1755.17,-718.63 1647.89,-718.63 1647.89,-718.63 1641.89,-718.63 1635.89,-712.63 1635.89,-706.63 1635.89,-706.63 1635.89,-655.37 1635.89,-655.37 1635.89,-649.37 1641.89,-643.37 1647.89,-643.37 1647.89,-643.37 1755.17,-643.37 1755.17,-643.37 1761.17,-643.37 1767.17,-649.37 1767.17,-655.37 1767.17,-655.37 1767.17,-706.63 1767.17,-706.63 1767.17,-712.63 1761.17,-718.63 1755.17,-718.63"/>
<text xml:space="preserve" text-anchor="middle" x="1701.53" y="-701.48" font-family="Helvetica,sans-Serif" font-size="12.00">Execution run</text>
<text xml:space="preserve" text-anchor="middle" x="1701.53" y="-688.73" font-family="Helvetica,sans-Serif" font-size="12.00">node attempts,</text>
<text xml:space="preserve" text-anchor="middle" x="1701.53" y="-675.98" font-family="Helvetica,sans-Serif" font-size="12.00">stdout/stderr,</text>
<text xml:space="preserve" text-anchor="middle" x="1701.53" y="-663.23" font-family="Helvetica,sans-Serif" font-size="12.00">artifacts, checkpoints,</text>
<text xml:space="preserve" text-anchor="middle" x="1701.53" y="-650.48" font-family="Helvetica,sans-Serif" font-size="12.00">policy decisions</text>
</g>
<!-- model_providers -->
<g id="node31" class="node">
<title>model_providers</title>
<path fill="#fce7f3" stroke="#334155" stroke-width="1.2" d="M1758.92,-78.26C1758.92,-78.26 1644.14,-78.26 1644.14,-78.26 1638.14,-78.26 1632.14,-72.26 1632.14,-66.26 1632.14,-66.26 1632.14,-27.74 1632.14,-27.74 1632.14,-21.74 1638.14,-15.74 1644.14,-15.74 1644.14,-15.74 1758.92,-15.74 1758.92,-15.74 1764.92,-15.74 1770.92,-21.74 1770.92,-27.74 1770.92,-27.74 1770.92,-66.26 1770.92,-66.26 1770.92,-72.26 1764.92,-78.26 1758.92,-78.26"/>
<text xml:space="preserve" text-anchor="middle" x="1701.53" y="-61.1" font-family="Helvetica,sans-Serif" font-size="12.00">Model providers</text>
<text xml:space="preserve" text-anchor="middle" x="1701.53" y="-48.35" font-family="Helvetica,sans-Serif" font-size="12.00">OpenAI, Anthropic,</text>
<text xml:space="preserve" text-anchor="middle" x="1701.53" y="-35.6" font-family="Helvetica,sans-Serif" font-size="12.00">OpenAI&#45;compatible</text>
<text xml:space="preserve" text-anchor="middle" x="1701.53" y="-22.85" font-family="Helvetica,sans-Serif" font-size="12.00">open&#45;weight endpoints</text>
</g>
<!-- docker_nodes -->
<g id="node32" class="node">
<title>docker_nodes</title>
<path fill="#fce7f3" stroke="#334155" stroke-width="1.2" d="M1764.17,-254.26C1764.17,-254.26 1638.89,-254.26 1638.89,-254.26 1632.89,-254.26 1626.89,-248.26 1626.89,-242.26 1626.89,-242.26 1626.89,-203.74 1626.89,-203.74 1626.89,-197.74 1632.89,-191.74 1638.89,-191.74 1638.89,-191.74 1764.17,-191.74 1764.17,-191.74 1770.17,-191.74 1776.17,-197.74 1776.17,-203.74 1776.17,-203.74 1776.17,-242.26 1776.17,-242.26 1776.17,-248.26 1770.17,-254.26 1764.17,-254.26"/>
<text xml:space="preserve" text-anchor="middle" x="1701.53" y="-237.1" font-family="Helvetica,sans-Serif" font-size="12.00">Docker nodes</text>
<text xml:space="preserve" text-anchor="middle" x="1701.53" y="-224.35" font-family="Helvetica,sans-Serif" font-size="12.00">read&#45;only workflow spec,</text>
<text xml:space="preserve" text-anchor="middle" x="1701.53" y="-211.6" font-family="Helvetica,sans-Serif" font-size="12.00">node workspace,</text>
<text xml:space="preserve" text-anchor="middle" x="1701.53" y="-198.85" font-family="Helvetica,sans-Serif" font-size="12.00">network none by default</text>
</g>
<!-- live_systems -->
<g id="node33" class="node">
<title>live_systems</title>
<path fill="#fce7f3" stroke="#334155" stroke-width="1.2" d="M1763.79,-430.26C1763.79,-430.26 1639.26,-430.26 1639.26,-430.26 1633.26,-430.26 1627.26,-424.26 1627.26,-418.26 1627.26,-418.26 1627.26,-379.74 1627.26,-379.74 1627.26,-373.74 1633.26,-367.74 1639.26,-367.74 1639.26,-367.74 1763.79,-367.74 1763.79,-367.74 1769.79,-367.74 1775.79,-373.74 1775.79,-379.74 1775.79,-379.74 1775.79,-418.26 1775.79,-418.26 1775.79,-424.26 1769.79,-430.26 1763.79,-430.26"/>
<text xml:space="preserve" text-anchor="middle" x="1701.53" y="-413.1" font-family="Helvetica,sans-Serif" font-size="12.00">External APIs</text>
<text xml:space="preserve" text-anchor="middle" x="1701.53" y="-400.35" font-family="Helvetica,sans-Serif" font-size="12.00">GitHub, Slack, Discord,</text>
<text xml:space="preserve" text-anchor="middle" x="1701.53" y="-387.6" font-family="Helvetica,sans-Serif" font-size="12.00">Notion, Linear, Jira,</text>
<text xml:space="preserve" text-anchor="middle" x="1701.53" y="-374.85" font-family="Helvetica,sans-Serif" font-size="12.00">Airtable, DBs, webhooks</text>
</g>
<!-- agent_clis -->
<g id="node34" class="node">
<title>agent_clis</title>
<path fill="#fce7f3" stroke="#334155" stroke-width="1.2" d="M1759.67,-335.88C1759.67,-335.88 1643.39,-335.88 1643.39,-335.88 1637.39,-335.88 1631.39,-329.88 1631.39,-323.88 1631.39,-323.88 1631.39,-298.12 1631.39,-298.12 1631.39,-292.12 1637.39,-286.12 1643.39,-286.12 1643.39,-286.12 1759.67,-286.12 1759.67,-286.12 1765.67,-286.12 1771.67,-292.12 1771.67,-298.12 1771.67,-298.12 1771.67,-323.88 1771.67,-323.88 1771.67,-329.88 1765.67,-335.88 1759.67,-335.88"/>
<text xml:space="preserve" text-anchor="middle" x="1701.53" y="-318.73" font-family="Helvetica,sans-Serif" font-size="12.00">Agent CLIs</text>
<text xml:space="preserve" text-anchor="middle" x="1701.53" y="-305.98" font-family="Helvetica,sans-Serif" font-size="12.00">codex&#45;cli, claude&#45;code,</text>
<text xml:space="preserve" text-anchor="middle" x="1701.53" y="-293.23" font-family="Helvetica,sans-Serif" font-size="12.00">goose, custom agents</text>
</g>
<!-- web_providers -->
<g id="node35" class="node">
<title>web_providers</title>
<path fill="#fce7f3" stroke="#334155" stroke-width="1.2" d="M1750.67,-159.88C1750.67,-159.88 1652.39,-159.88 1652.39,-159.88 1646.39,-159.88 1640.39,-153.88 1640.39,-147.88 1640.39,-147.88 1640.39,-122.12 1640.39,-122.12 1640.39,-116.12 1646.39,-110.12 1652.39,-110.12 1652.39,-110.12 1750.67,-110.12 1750.67,-110.12 1756.67,-110.12 1762.67,-116.12 1762.67,-122.12 1762.67,-122.12 1762.67,-147.88 1762.67,-147.88 1762.67,-153.88 1756.67,-159.88 1750.67,-159.88"/>
<text xml:space="preserve" text-anchor="middle" x="1701.53" y="-142.72" font-family="Helvetica,sans-Serif" font-size="12.00">Web providers</text>
<text xml:space="preserve" text-anchor="middle" x="1701.53" y="-129.97" font-family="Helvetica,sans-Serif" font-size="12.00">Exa, TinyFish,</text>
<text xml:space="preserve" text-anchor="middle" x="1701.53" y="-117.22" font-family="Helvetica,sans-Serif" font-size="12.00">browser automation</text>
</g>
<!-- local_state -->
<g id="node36" class="node">
<title>local_state</title>
<path fill="#d1fae5" stroke="#334155" stroke-width="1.2" d="M2748.27,-613.26C2748.27,-613.26 2615.49,-613.26 2615.49,-613.26 2609.49,-613.26 2603.49,-607.26 2603.49,-601.26 2603.49,-601.26 2603.49,-562.74 2603.49,-562.74 2603.49,-556.74 2609.49,-550.74 2615.49,-550.74 2615.49,-550.74 2748.27,-550.74 2748.27,-550.74 2754.27,-550.74 2760.27,-556.74 2760.27,-562.74 2760.27,-562.74 2760.27,-601.26 2760.27,-601.26 2760.27,-607.26 2754.27,-613.26 2748.27,-613.26"/>
<text xml:space="preserve" text-anchor="middle" x="2681.88" y="-596.1" font-family="Helvetica,sans-Serif" font-size="12.00">Local state</text>
<text xml:space="preserve" text-anchor="middle" x="2681.88" y="-583.35" font-family="Helvetica,sans-Serif" font-size="12.00">SQLite, encrypted secrets,</text>
<text xml:space="preserve" text-anchor="middle" x="2681.88" y="-570.6" font-family="Helvetica,sans-Serif" font-size="12.00">artifact store,</text>
<text xml:space="preserve" text-anchor="middle" x="2681.88" y="-557.85" font-family="Helvetica,sans-Serif" font-size="12.00">.kelpclaw/runs</text>
</g>
<!-- replay -->
<g id="node37" class="node">
<title>replay</title>
<path fill="#d1fae5" stroke="#334155" stroke-width="1.2" d="M2728.77,-720.63C2728.77,-720.63 2634.99,-720.63 2634.99,-720.63 2628.99,-720.63 2622.99,-714.63 2622.99,-708.63 2622.99,-708.63 2622.99,-657.37 2622.99,-657.37 2622.99,-651.37 2628.99,-645.37 2634.99,-645.37 2634.99,-645.37 2728.77,-645.37 2728.77,-645.37 2734.77,-645.37 2740.77,-651.37 2740.77,-657.37 2740.77,-657.37 2740.77,-708.63 2740.77,-708.63 2740.77,-714.63 2734.77,-720.63 2728.77,-720.63"/>
<text xml:space="preserve" text-anchor="middle" x="2681.88" y="-703.48" font-family="Helvetica,sans-Serif" font-size="12.00">Replay evidence</text>
<text xml:space="preserve" text-anchor="middle" x="2681.88" y="-690.73" font-family="Helvetica,sans-Serif" font-size="12.00">workflow.json,</text>
<text xml:space="preserve" text-anchor="middle" x="2681.88" y="-677.98" font-family="Helvetica,sans-Serif" font-size="12.00">input/output JSON,</text>
<text xml:space="preserve" text-anchor="middle" x="2681.88" y="-665.23" font-family="Helvetica,sans-Serif" font-size="12.00">run&#45;manifest,</text>
<text xml:space="preserve" text-anchor="middle" x="2681.88" y="-652.48" font-family="Helvetica,sans-Serif" font-size="12.00">hashes and logs</text>
</g>
<!-- audit_bundle -->
<g id="node38" class="node">
<title>audit_bundle</title>
<path fill="#d1fae5" stroke="#334155" stroke-width="1.2" d="M2935.3,-720.26C2935.3,-720.26 2833.27,-720.26 2833.27,-720.26 2827.27,-720.26 2821.27,-714.26 2821.27,-708.26 2821.27,-708.26 2821.27,-669.74 2821.27,-669.74 2821.27,-663.74 2827.27,-657.74 2833.27,-657.74 2833.27,-657.74 2935.3,-657.74 2935.3,-657.74 2941.3,-657.74 2947.3,-663.74 2947.3,-669.74 2947.3,-669.74 2947.3,-708.26 2947.3,-708.26 2947.3,-714.26 2941.3,-720.26 2935.3,-720.26"/>
<text xml:space="preserve" text-anchor="middle" x="2884.29" y="-703.1" font-family="Helvetica,sans-Serif" font-size="12.00">Static audit bundle</text>
<text xml:space="preserve" text-anchor="middle" x="2884.29" y="-690.35" font-family="Helvetica,sans-Serif" font-size="12.00">index.html, manifest,</text>
<text xml:space="preserve" text-anchor="middle" x="2884.29" y="-677.6" font-family="Helvetica,sans-Serif" font-size="12.00">attestation,</text>
<text xml:space="preserve" text-anchor="middle" x="2884.29" y="-664.85" font-family="Helvetica,sans-Serif" font-size="12.00">redaction report</text>
</g>
<!-- governance_outputs -->
<g id="node39" class="node">
<title>governance_outputs</title>
<path fill="#d1fae5" stroke="#334155" stroke-width="1.2" d="M3140.33,-720.26C3140.33,-720.26 3020.3,-720.26 3020.3,-720.26 3014.3,-720.26 3008.3,-714.26 3008.3,-708.26 3008.3,-708.26 3008.3,-669.74 3008.3,-669.74 3008.3,-663.74 3014.3,-657.74 3020.3,-657.74 3020.3,-657.74 3140.33,-657.74 3140.33,-657.74 3146.33,-657.74 3152.33,-663.74 3152.33,-669.74 3152.33,-669.74 3152.33,-708.26 3152.33,-708.26 3152.33,-714.26 3146.33,-720.26 3140.33,-720.26"/>
<text xml:space="preserve" text-anchor="middle" x="3080.32" y="-703.1" font-family="Helvetica,sans-Serif" font-size="12.00">Governance outputs</text>
<text xml:space="preserve" text-anchor="middle" x="3080.32" y="-690.35" font-family="Helvetica,sans-Serif" font-size="12.00">reports, controls matrix,</text>
<text xml:space="preserve" text-anchor="middle" x="3080.32" y="-677.6" font-family="Helvetica,sans-Serif" font-size="12.00">SARIF, inventory graph,</text>
<text xml:space="preserve" text-anchor="middle" x="3080.32" y="-664.85" font-family="Helvetica,sans-Serif" font-size="12.00">coverage gaps</text>
</g>
<!-- reviewer -->
<g id="node40" class="node">
<title>reviewer</title>
<path fill="#d1fae5" stroke="#334155" stroke-width="1.2" d="M3327.36,-720.26C3327.36,-720.26 3225.33,-720.26 3225.33,-720.26 3219.33,-720.26 3213.33,-714.26 3213.33,-708.26 3213.33,-708.26 3213.33,-669.74 3213.33,-669.74 3213.33,-663.74 3219.33,-657.74 3225.33,-657.74 3225.33,-657.74 3327.36,-657.74 3327.36,-657.74 3333.36,-657.74 3339.36,-663.74 3339.36,-669.74 3339.36,-669.74 3339.36,-708.26 3339.36,-708.26 3339.36,-714.26 3333.36,-720.26 3327.36,-720.26"/>
<text xml:space="preserve" text-anchor="middle" x="3276.35" y="-703.1" font-family="Helvetica,sans-Serif" font-size="12.00">Review surfaces</text>
<text xml:space="preserve" text-anchor="middle" x="3276.35" y="-690.35" font-family="Helvetica,sans-Serif" font-size="12.00">offline reviewer,</text>
<text xml:space="preserve" text-anchor="middle" x="3276.35" y="-677.6" font-family="Helvetica,sans-Serif" font-size="12.00">security/compliance,</text>
<text xml:space="preserve" text-anchor="middle" x="3276.35" y="-664.85" font-family="Helvetica,sans-Serif" font-size="12.00">PR checks</text>
</g>
</g>
</svg>
